<svg width="129" height="32" viewBox="0 0 129 32" fill="none" xmlns="http://www.w3.org/2000/svg">
<path d="M84.6705 30.8295C78.9418 30.8295 77.1232 29.0109 77.1232 23.4186V11.9613H73.5769V7.09643H77.1232V0.00378418H84.034V7.09643H88.8534V11.9613H84.034V23.6914C84.034 25.3282 84.7615 25.9192 86.3982 25.9192H88.8534V30.5567C87.8077 30.6476 85.7617 30.8295 84.6705 30.8295Z" fill="white"/>
<path d="M64.0524 30.5567H57.0962V7.09646H63.6887V12.1431C64.8708 8.05124 66.9168 6.7782 70.0084 6.7782C70.645 6.7782 71.7361 6.91459 72.1908 7.09646V13.1434L69.7356 13.0979C66.2803 13.0979 64.0524 15.5531 64.0524 19.8268V30.5567Z" fill="white"/>
<path d="M42.2672 31.0115C34.4016 31.0115 29.9915 26.1466 29.9915 18.8266C29.9915 11.5976 34.2652 6.64185 41.9944 6.64185C49.7236 6.64185 53.9973 11.6431 53.9973 18.6448C53.9973 19.2813 53.9519 19.7814 53.8609 20.3725H36.9477C37.0841 24.328 39.0391 26.3739 42.2672 26.3739C44.7223 26.3739 46.45 25.1009 47.0865 23.0095H53.4972C52.497 27.8743 48.8142 31.0115 42.2672 31.0115ZM41.9944 11.2793C39.1755 11.2793 37.4478 12.9161 36.9477 15.9168H47.0411C46.541 12.9161 44.8133 11.2793 41.9944 11.2793Z" fill="white"/>
<path d="M21.0628 31H11.9372L0 0H7.97346L16.5 24.0337L25.0265 0H33L21.0628 31Z" fill="white"/>
<path d="M92 0C98.0751 0 103 4.92487 103 11V15C96.9249 15 92 10.0751 92 4V0Z" fill="#10B981"/>
<path d="M103 15H101.9C96.4324 15 92 10.6827 92 5.35714V0L103 15Z" fill="#159067"/>
<path d="M117.392 0C123.238 0 127.977 4.73876 127.977 10.5843V14.8181C122.131 14.8181 117.392 10.0793 117.392 4.23373V0Z" fill="#10B981"/>
<path d="M127.977 14.8181H126.918C121.657 14.8181 117.392 10.5532 117.392 5.29216V0L127.977 14.8181Z" fill="#159067"/>
<path d="M116.606 0C110.76 0 106.021 4.73876 106.021 10.5843V14.8181C111.867 14.8181 116.606 10.0793 116.606 4.23373V0Z" fill="#159067"/>
<path d="M106.021 14.8181H107.08C112.341 14.8181 116.606 10.5532 116.606 5.29216V0L106.021 14.8181Z" fill="#10B981"/>
<path d="M92.0806 31.1482C97.9261 31.1482 102.665 26.4094 102.665 20.5639V16.3301C96.8193 16.3301 92.0806 21.0689 92.0806 26.9145V31.1482Z" fill="#10B981"/>
<path d="M102.665 16.3301H101.606C96.3455 16.3301 92.0806 20.595 92.0806 25.856V31.1482L102.665 16.3301Z" fill="#159067"/>
<path d="M117.453 31.1482C123.298 31.1482 128.037 26.4094 128.037 20.5639V16.3301C122.191 16.3301 117.453 21.0689 117.453 26.9145V31.1482Z" fill="#10B981"/>
<path d="M128.037 16.3301H126.979C121.718 16.3301 117.453 20.595 117.453 25.856V31.1482L128.037 16.3301Z" fill="#159067"/>
<path d="M116.545 31.1482C110.7 31.1482 105.961 26.4094 105.961 20.5639V16.3301C111.807 16.3301 116.545 21.0689 116.545 26.9145V31.1482Z" fill="#159067"/>
<path d="M105.961 16.3301H107.02C112.281 16.3301 116.545 20.595 116.545 25.856V31.1482L105.961 16.3301Z" fill="#10B981"/>
</svg>
